# xmcd
# 
# Track frame offsets:
#     150
#     19912
#     40272
#     62330
#     81122
#     103180
#     127347
#     144652
#     162117
#     177922
# 
# Disc length: 2732
# 
# Revision: 1
# Processed by: cddbd v1.5.2PL0 Copyright (c) Steve Scherf et al.
# Submitted via: fre:ac v1.0.27
# 
DISCID=860aaa0a
DTITLE=Big Blue Hearts - Here Come Those Dreams Again
DYEAR=2005
DGENRE=Country-influenced Rock
TTITLE0=Lovin' You
TTITLE1=Love Or Something Like It
TTITLE2=Dreamin' Of A Woman
TTITLE3=Here Come Those Dreams Again
TTITLE4=Ordinary People
TTITLE5=You Can't Lose What You Never Had
TTITLE6=Too Much
TTITLE7=Don't Mind Messin'
TTITLE8=Feel So Right
TTITLE9=What Would You Do
EXTD=
EXTT0=
EXTT1=
EXTT2=
EXTT3=
EXTT4=
EXTT5=
EXTT6=
EXTT7=
EXTT8=
EXTT9=
PLAYORDER=
